<svg width="260" height="242" viewBox="0 0 260 242" fill="none" xmlns="http://www.w3.org/2000/svg">
<path d="M247.359 202.244C251.509 206.464 256.828 215.688 244.914 218.819" stroke="black" stroke-width="1.6575" stroke-linecap="round"/>
<path d="M247.569 211.194C246.861 207.497 243.954 200.526 237.68 198.287C236.649 197.919 235.527 197.679 234.309 197.602" stroke="black" stroke-width="1.6575" stroke-linecap="round"/>
<path d="M240.304 176.718C232.056 182.207 218.511 196.65 230.316 210.512C242.12 224.375 246.736 225.59 247.568 224.465" stroke="black" stroke-width="1.6575" stroke-linecap="round"/>
<path d="M249.557 187.657L237.623 198.265" stroke="black" stroke-width="1.6575" stroke-linecap="round"/>
<path d="M237.623 175.723C238.355 175.806 239.289 176.073 240.338 176.586C243.222 177.996 246.973 181.261 249.761 187.653C250.56 189.487 251.28 191.578 251.878 193.956" stroke="black" stroke-width="1.6575" stroke-linecap="round"/>
<path d="M238.949 172.409C244.166 173.072 254.917 176.121 256.187 183.017" stroke="black" stroke-width="1.6575" stroke-linecap="round"/>
<path d="M240.939 168.846C243.539 168.117 249.896 167.28 254.531 169.756" stroke="black" stroke-width="1.6575" stroke-linecap="round"/>
<path d="M180.069 83.88C179.833 85.198 179.282 86.2916 178.627 87.0004C177.964 87.7171 177.284 87.9594 176.729 87.86C176.174 87.7608 175.621 87.2977 175.248 86.3954C174.879 85.5033 174.742 84.2867 174.978 82.9687C175.214 81.6506 175.764 80.557 176.42 79.8483C177.083 79.1316 177.763 78.8892 178.318 78.9887C178.872 79.0878 179.426 79.5509 179.799 80.4533C180.168 81.3453 180.305 82.5619 180.069 83.88Z" stroke="black" stroke-width="1.6575"/>
<path d="M1.5 88.3843L40.2578 78.8643M30.4345 7.93646L51.4115 37.2375L30.4345 7.93646ZM32.2276 35.1862L42.691 44.1672L32.2276 35.1862ZM3.39929 44.7927C16.5292 48.3109 23.8907 50.2834 37.0207 53.8016L3.39929 44.7927ZM22.1411 68.3471L36.3418 67.8625L22.1411 68.3471Z" stroke="black" stroke-width="1.6575" stroke-linecap="round"/>
<path d="M88.2745 68.7363C86.2898 76.143 82.8422 82.3636 78.9136 86.4401C74.9621 90.5407 70.6782 92.3348 66.9472 91.335C63.2158 90.3352 60.403 86.6396 59.0313 81.1129C57.6675 75.6179 57.7918 68.5069 59.7765 61.1002C61.7609 53.6935 65.2088 47.4729 69.1374 43.3965C73.0888 39.2958 77.3725 37.5017 81.1038 38.5015C84.8348 39.501 87.6476 43.1969 89.0197 48.7237C90.3835 54.2186 90.2592 61.3296 88.2745 68.7363Z" stroke="black" stroke-width="1.6575"/>
<path d="M71.4564 69.3778C72.8712 69.7568 74.5943 67.9137 75.305 65.2611C76.0158 62.6084 75.4451 60.1507 74.0304 59.7716C72.6156 59.3925 70.8926 61.2356 70.1818 63.8883C69.471 66.541 70.0417 68.9987 71.4564 69.3778Z" fill="black"/>
<path d="M131.335 85.4221C133.183 82.6226 133.793 77.9584 133.866 75.976L138.357 79.0673C139.755 82.0498 137.91 84.1525 136.813 84.8307L131.335 85.4221Z" fill="black"/>
<path d="M71.6094 91.2124L136.81 84.8306M138.354 79.0672L83.2556 39.4218L138.354 79.0672Z" stroke="black" stroke-width="1.6575" stroke-linecap="round"/>
<path d="M71.5547 68.3743L84.8684 77.6042M73.614 60.6894L89.5872 59.993L73.614 60.6894Z" stroke="black" stroke-width="1.6575" stroke-linecap="round"/>
<path d="M141.548 175.54L128.044 189.155C117.009 199.057 109.724 191.441 105.248 187.367C100.607 180.833 93.3145 172.672 93.3145 145.363C93.3145 128.291 97.4582 119.973 114.199 126.271" stroke="black" stroke-width="1.6575" stroke-linecap="round"/>
<path d="M138.357 79.067C138.914 80.1888 139.386 82.9121 136.812 84.8308" stroke="black" stroke-width="1.6575" stroke-linecap="round"/>
<path d="M133.586 75.7304C133.672 77.7555 133.076 82.1144 131.012 85.3363" stroke="black" stroke-width="1.6575" stroke-linecap="round"/>
<path d="M169.396 105.915C157.959 105.915 132.102 111.882 121.494 136.247" stroke="black" stroke-width="1.6575" stroke-linecap="round"/>
<path d="M92.0614 106.816C91.3053 107.785 90.4851 110.155 92.7586 112.335C92.927 112.496 93.1123 112.657 93.3161 112.815C96.2685 115.117 97.7218 113.023 98.0791 111.689" stroke="black" stroke-width="1.6575" stroke-linecap="round"/>
<path d="M101.083 107.534C101.973 109.845 100.244 110.45 99.2683 110.463C99.0369 110.436 98.7585 110.393 98.4459 110.33C96.7357 109.987 94.0081 109.074 92.407 107.252C92.2754 107.102 92.1617 106.957 92.0639 106.817C90.7551 104.935 92.3533 103.876 93.3935 103.57" stroke="black" stroke-width="1.6575" stroke-linecap="round"/>
<path d="M95.1052 99.7386C94.1409 99.7091 92.3567 100.135 92.9352 102.074C93.5137 104.014 98.3963 106.455 100.766 107.433C100.869 107.472 100.974 107.506 101.081 107.534C102.051 107.79 103.131 107.57 103.479 106.272C103.97 104.438 101.789 103.188 101.283 102.939" stroke="black" stroke-width="1.6575" stroke-linecap="round"/>
<path d="M102.17 95.7961C101.163 95.9264 100.01 97.0704 101.878 98.8065C103.747 100.543 102.803 101.972 102.098 102.469C101.044 102.987 98.1278 102.812 94.8966 97.9655C91.6652 93.1186 99.234 92.6641 103.422 93.043" stroke="black" stroke-width="1.6575" stroke-linecap="round"/>
<path d="M110.262 102.084C108.834 100.157 105.841 97.1932 105.299 100.755C104.757 104.315 106.798 106.476 107.886 107.11" stroke="black" stroke-width="1.6575" stroke-linecap="round"/>
<path d="M106.573 118.426C105.855 117.262 105.017 113.857 107.405 109.555" stroke="black" stroke-width="1.6575" stroke-linecap="round"/>
<path d="M106.274 88.1458L102.162 98.3696" stroke="black" stroke-width="1.6575" stroke-linecap="round"/>
<path d="M109.878 103.525L117.756 86.9318" stroke="black" stroke-width="1.6575" stroke-linecap="round"/>
<path d="M95.4301 116.469C94.6149 119.511 92.1015 123.128 95.0462 124.947C98.6417 127.167 100.012 123.703 101.8 120.235L106.841 109.746" stroke="black" stroke-width="1.6575" stroke-linecap="round"/>
<path d="M112.874 99.6163C114.642 105.859 114.697 118.647 114.697 144.007" stroke="black" stroke-width="1.6575" stroke-linecap="round"/>
<path d="M222.781 165.585C230.885 184.977 219.78 202.05 222.781 234.371C202.67 240.338 158.172 247.2 141.067 226.912C140.293 223.376 141.067 203.376 141.067 190.447" stroke="black" stroke-width="1.6575" stroke-linecap="round"/>
<path d="M205.712 136.578L203.05 132.492C200.455 128.51 195.406 126.92 190.998 128.698L184.654 131.256C180.697 132.852 176.162 131.745 173.384 128.505L166.098 120.003" stroke="black" stroke-width="1.6575" stroke-linecap="round"/>
<path d="M169.079 106.55C167.587 102.24 168.946 99.3399 170.272 98.7876C178.228 106.081 190.295 103.373 194.77 98.9534C196.362 100.412 195.433 104.726 194.77 106.052C186.151 115.6 173.886 110.251 169.079 106.55Z" fill="black"/>
<path d="M146.224 38.7922C149.87 51.8864 151.693 53.0467 156.997 58.8479C156.997 53.1146 157.982 43.4915 157.982 39.4844C175.349 39.4844 190.006 32.3948 195.164 28.85C194.979 40.8714 206.249 48.7315 206.249 48.7315C206.249 48.7315 204.632 53.5864 203.708 64.4519C202.969 73.1442 205.094 71.4645 206.249 69.5378C209.574 58.8111 215.025 61.6776 217.334 64.4519C245.673 18.405 202.092 9.50785 193.778 10.3555C187.497 4.99209 178.736 0.789044 172.578 0.172564C150.367 -2.05078 140.311 17.5604 146.224 38.7922Z" fill="black"/>
<path d="M205.863 77.7341C202.88 95.9483 182.855 109.046 168.404 94.2908C153.953 79.5361 156.845 52.5281 158.389 39.9248" stroke="black" stroke-width="1.6575" stroke-linecap="round"/>
<path d="M217.661 63.3236C219.484 67.7989 217.773 77.7157 205.859 77.7157" stroke="black" stroke-width="1.6575" stroke-linecap="round"/>
<path d="M212.408 65.7814C212.672 66.7391 212.461 69.0082 209.508 70.4224" stroke="black" stroke-width="1.6575" stroke-linecap="round"/>
<path d="M158.789 75.3952C154.901 73.7742 152.159 67.7707 153.214 58.1572" stroke="black" stroke-width="1.6575" stroke-linecap="round"/>
<path d="M167.513 63.7341C166.408 63.2904 165.977 61.7764 166.549 60.3523C167.121 58.9282 168.48 58.1335 169.585 58.5771C170.689 59.0208 171.12 60.5348 170.548 61.9589C169.976 63.3829 168.617 64.1777 167.513 63.7341Z" fill="black"/>
<path d="M187.789 64.3056C186.668 63.9045 186.146 62.5003 186.623 61.1693C187.099 59.8382 188.394 59.0843 189.514 59.4854C190.635 59.8865 191.157 61.2907 190.68 62.6218C190.204 63.9528 188.909 64.7067 187.789 64.3056Z" fill="black"/>
<path d="M196.58 57.8258C196.056 56.2853 193.799 53.4357 188.955 54.36" stroke="black" stroke-width="1.6575" stroke-linecap="round"/>
<path d="M173.378 54.842C172.223 53.8416 169.081 52.4407 165.754 54.842" stroke="black" stroke-width="1.6575" stroke-linecap="round"/>
<path d="M176.293 62.0192C175.907 65.2924 173.374 72.2957 177.683 72.2957" stroke="black" stroke-width="1.6575" stroke-linecap="round"/>
<path d="M195.25 104.754C228.234 104.754 269.506 139.396 256.64 182.657" stroke="black" stroke-width="1.6575" stroke-linecap="round"/>
<path d="M219.888 152.684C221.379 154.287 224.694 158.718 226.02 163.624C227.346 168.53 231.103 171.967 232.816 173.072" stroke="black" stroke-width="1.6575" stroke-linecap="round"/>
</svg>
